<svg version="1.2" baseProfile="tiny-ps" xmlns="http://www.w3.org/2000/svg" viewBox="0 0 512 512" width="16" height="16">
	<title>conference-svg</title>
	<style>
		tspan { white-space:pre }
		.shp0 { fill: #ffffff } 
	</style>
	<g id="Layer">
		<g id="Layer">
			<path id="Layer" class="shp0" d="M256 100C228.35 100 206 77.65 206 50C206 22.35 228.35 0 256 0C283.65 0 306 22.35 306 50C306 77.65 283.65 100 256 100Z" />
			<path id="Layer" class="shp0" d="M310.53 108.46C296.23 121.81 277.06 130 256 130C234.94 130 215.77 121.81 201.47 108.46C180.27 119.5 164.97 140.38 161.67 165L350.33 165C347.03 140.38 331.74 119.5 310.53 108.46Z" />
			<path id="Layer" class="shp0" d="M76 417C48.35 417 26 394.65 26 367C26 339.35 48.35 317 76 317C103.65 317 126 339.35 126 367C126 394.65 103.65 417 76 417Z" />
			<path id="Layer" class="shp0" d="M436 417C408.35 417 386 394.65 386 367C386 339.35 408.35 317 436 317C463.65 317 486 339.35 486 367C486 394.65 463.65 417 436 417Z" />
			<path id="Layer" class="shp0" d="M129.81 426.15C115.59 439.09 96.7 447 76 447C55.3 447 36.41 439.1 22.19 426.15C9.38 435.2 1 450.12 1 467L1 497C1 505.28 7.72 512 16 512L136 512C144.28 512 151 505.28 151 497L151 467C151 450.12 142.62 435.2 129.81 426.15Z" />
			<path id="Layer" class="shp0" d="M489.81 426.15C475.59 439.09 456.7 447 436 447C415.3 447 396.41 439.1 382.19 426.15C369.38 435.2 361 450.12 361 467L361 497C361 505.28 367.72 512 376 512L496 512C504.28 512 511 505.28 511 497L511 467C511 450.12 502.62 435.2 489.81 426.15Z" />
			<path id="Layer" class="shp0" d="M309.81 426.15C295.59 439.09 276.7 447 256 447C235.3 447 216.41 439.1 202.19 426.15C189.38 435.2 181 450.12 181 467L181 497C181 505.28 187.72 512 196 512L316 512C324.28 512 331 505.28 331 497L331 467C331 450.12 322.62 435.2 309.81 426.15Z" />
			<path id="Layer" class="shp0" d="M356 367C356 331.62 379.1 301.55 411 291.02L411 225L416 225C424.28 225 431 218.28 431 210C431 201.72 424.28 195 416 195L401 195L401 135C401 131.02 399.42 127.21 396.61 124.39L376.61 104.39C370.75 98.54 361.25 98.54 355.39 104.39C349.53 110.25 349.53 119.75 355.39 125.61L371 141.21L371 195L96 195C87.72 195 81 201.72 81 210C81 218.28 87.72 225 96 225L101 225L101 291.02C132.9 301.55 156 331.62 156 367C156 379.61 153.06 391.55 147.84 402.17C154.92 407.29 161.03 413.47 166 420.41C170.97 413.47 177.08 407.29 184.16 402.17C178.94 391.55 176 379.61 176 367C176 322.89 211.89 287 256 287C300.11 287 336 322.89 336 367C336 379.61 333.06 391.55 327.84 402.17C334.92 407.29 341.03 413.47 346 420.41C350.97 413.47 357.08 407.29 364.16 402.17C358.94 391.55 356 379.61 356 367Z" />
			<path id="Layer" class="shp0" d="M256 417C228.35 417 206 394.65 206 367C206 339.35 228.35 317 256 317C283.65 317 306 339.35 306 367C306 394.65 283.65 417 256 417Z" />
		</g>
	</g>
</svg>