<svg version="1.2" baseProfile="tiny-ps" xmlns="http://www.w3.org/2000/svg" viewBox="0 0 510 510" width="16" height="16">
	<title>debate-svg</title>
	<style>
		tspan { white-space:pre }
		.shp0 { fill: #ffffff } 
	</style>
	<g id="Layer">
		<path id="Layer" fill-rule="evenodd" class="shp0" d="M5 141.14C2.24 141.14 0 138.9 0 136.14L0 19.17C0 16.41 2.24 14.17 5 14.17L175.48 14.17C178.24 14.17 180.48 16.41 180.48 19.17L180.48 55.83L164.76 55.83C156.48 55.83 149.76 62.54 149.76 70.83L149.76 141.14L128.98 141.14C127.46 141.14 126.03 141.83 125.08 143.02L90.24 186.57L55.39 143.01C54.44 141.83 53.01 141.14 51.49 141.14L5 141.14ZM58.39 79.51C58.39 87.79 65.1 94.51 73.39 94.51L96.61 94.51C104.9 94.51 111.61 87.79 111.61 79.51C111.61 71.23 104.9 64.51 96.61 64.51L73.39 64.51C65.1 64.51 58.39 71.23 58.39 79.51Z" />
		<path id="Layer" fill-rule="evenodd" class="shp0" d="M505 14.17C507.76 14.17 510 16.41 510 19.17L510 136.14C510 138.9 507.76 141.14 505 141.14L458.51 141.14C456.99 141.14 455.56 141.83 454.61 143.01L419.76 186.57L384.92 143.02C383.97 141.83 382.54 141.14 381.02 141.14L360.24 141.14L360.24 70.83C360.24 62.54 353.52 55.83 345.24 55.83L329.52 55.83L329.52 19.17C329.52 16.41 331.76 14.17 334.52 14.17L505 14.17ZM446.38 79.51C446.38 71.23 439.66 64.51 431.38 64.51L408.15 64.51C399.87 64.51 393.15 71.23 393.15 79.51C393.15 87.79 399.87 94.51 408.15 94.51L431.38 94.51C439.66 94.51 446.38 87.79 446.38 79.51Z" />
		<path id="Layer" fill-rule="evenodd" class="shp0" d="M179.76 90.83C179.76 88.07 182 85.83 184.76 85.83L325.24 85.83C328 85.83 330.24 88.07 330.24 90.83L330.24 177.8C330.24 180.56 328 182.8 325.24 182.8L291.34 182.8C287.46 182.8 283.73 184.31 280.93 187.01L255 212.02L229.07 187.01C226.27 184.31 222.54 182.8 218.66 182.8L184.76 182.8C182 182.8 179.76 180.56 179.76 177.8L179.76 90.83ZM221.94 134.76C221.94 143.04 228.65 149.76 236.94 149.76L273.06 149.76C281.35 149.76 288.06 143.04 288.06 134.76C288.06 126.48 281.35 119.76 273.06 119.76L236.94 119.76C228.65 119.76 221.94 126.48 221.94 134.76Z" />
		<path id="Layer" class="shp0" d="M447.48 372.78C466.73 363.9 479.84 343.96 478.64 321.1C477.19 293.61 454.71 271.43 427.2 270.33C396.53 269.11 371.29 293.61 371.29 324C371.29 345.64 384.09 364.27 402.53 372.78C374.33 373.96 350.77 393.02 342.86 418.92C342.48 420.16 341.3 421 340 421C338.7 421 337.53 420.16 337.14 418.92C329.23 393.02 305.67 373.96 277.48 372.78C296.73 363.9 309.84 343.96 308.64 321.1C307.19 293.61 284.71 271.43 257.2 270.33C226.53 269.11 201.29 293.61 201.29 324C201.29 345.64 214.09 364.27 232.53 372.78C204.33 373.96 180.77 393.02 172.86 418.92C172.48 420.16 171.3 421 170 421C168.7 421 167.53 420.16 167.14 418.92C159.23 393.02 135.67 373.96 107.48 372.78C126.73 363.9 139.84 343.96 138.64 321.1C137.19 293.61 114.71 271.43 87.2 270.33C56.53 269.11 31.29 293.61 31.29 324C31.29 345.64 44.09 364.27 62.53 372.78C27.75 374.24 0 402.88 0 438.02L0 485.83C0 491.36 4.48 495.83 10 495.83L500 495.83C505.52 495.83 510 491.36 510 485.83L510 438.02C510 402.88 482.25 374.24 447.48 372.78L447.48 372.78Z" />
	</g>
</svg>