<?xml version="1.0"?>
<svg xmlns="http://www.w3.org/2000/svg" xmlns:xlink="http://www.w3.org/1999/xlink" xmlns:svgjs="http://svgjs.com/svgjs" version="1.1" width="512" height="512" x="0" y="0" viewBox="0 0 510 510" style="enable-background:new 0 0 512 512" xml:space="preserve" class=""><g><script/><path xmlns="http://www.w3.org/2000/svg" d="m5 141.138h46.487c1.519 0 2.955.69 3.904 1.876l34.849 43.554 34.839-43.553c.949-1.186 2.385-1.877 3.905-1.877h20.777v-70.31c0-8.284 6.716-15 15-15h15.72v-36.66c0-2.761-2.239-5-5-5h-170.481c-2.761 0-5 2.239-5 5v116.97c0 2.762 2.239 5 5 5zm68.39-76.63h23.22c8.29 0 15 6.72 15 15s-6.71 15-15 15h-23.22c-8.29 0-15-6.72-15-15s6.71-15 15-15z" fill="#ffffff" data-original="#000000" style="" class=""/><path xmlns="http://www.w3.org/2000/svg" d="m505 14.168h-170.48c-2.761 0-5 2.239-5 5v36.66h15.72c8.284 0 15 6.716 15 15v70.31h20.777c1.519 0 2.956.69 3.904 1.877l34.839 43.553 34.849-43.554c.949-1.186 2.385-1.876 3.904-1.876h46.487c2.761 0 5-2.239 5-5v-116.97c0-2.761-2.239-5-5-5zm-73.62 80.34h-23.23c-8.28 0-15-6.72-15-15s6.72-15 15-15h23.23c8.28 0 15 6.72 15 15s-6.72 15-15 15z" fill="#ffffff" data-original="#000000" style="" class=""/><path xmlns="http://www.w3.org/2000/svg" d="m179.76 177.798c0 2.761 2.239 5 5 5h33.9c3.88 0 7.61 1.51 10.41 4.21l25.93 25.01 25.93-25.01c2.8-2.7 6.53-4.21 10.41-4.21h33.9c2.761 0 5-2.239 5-5v-86.97c0-2.761-2.239-5-5-5h-140.48c-2.761 0-5 2.239-5 5zm57.18-58.04h36.12c8.29 0 15 6.72 15 15s-6.71 15-15 15h-36.12c-8.29 0-15-6.72-15-15s6.71-15 15-15z" fill="#ffffff" data-original="#000000" style="" class=""/><path xmlns="http://www.w3.org/2000/svg" d="m447.475 372.784c19.255-8.886 32.363-28.821 31.16-51.683-1.446-27.492-23.927-49.668-51.436-50.766-30.665-1.224-55.91 23.274-55.91 53.667 0 21.637 12.801 40.273 31.236 48.781-28.196 1.181-51.757 20.239-59.669 46.133-.381 1.248-1.553 2.084-2.856 2.084s-2.475-.836-2.856-2.083c-7.912-25.894-31.473-44.952-59.669-46.133 19.255-8.886 32.363-28.821 31.16-51.683-1.446-27.492-23.927-49.668-51.436-50.766-30.665-1.224-55.91 23.274-55.91 53.667 0 21.637 12.801 40.273 31.236 48.781-28.196 1.181-51.757 20.239-59.669 46.133-.381 1.248-1.553 2.084-2.856 2.084s-2.475-.836-2.856-2.083c-7.912-25.894-31.473-44.952-59.669-46.133 19.255-8.886 32.363-28.821 31.16-51.683-1.446-27.492-23.927-49.668-51.436-50.766-30.665-1.224-55.91 23.274-55.91 53.667 0 21.637 12.801 40.273 31.236 48.781-34.776 1.458-62.525 30.099-62.525 65.233v47.816c0 5.523 4.477 10 10 10h490c5.523 0 10-4.477 10-10v-47.816c0-35.134-27.749-63.775-62.525-65.232z" fill="#ffffff" data-original="#000000" style="" class=""/></g></svg>
