<svg version="1.2" baseProfile="tiny-ps" xmlns="http://www.w3.org/2000/svg" viewBox="0 0 512 512" width="16" height="16">
	<title>meeting-svg</title>
	<style>
		tspan { white-space:pre }
		.shp0 { fill: #ffffff } 
	</style>
	<g id="Layer">
		<g id="Layer">
			<g id="Layer">
				<path id="Layer" class="shp0" d="M90.01 76C65.2 76 45.01 96.19 45.01 121C45.01 145.82 65.2 166 90.01 166C114.83 166 135.01 145.82 135.01 121C135.01 96.19 114.83 76 90.01 76Z" />
			</g>
		</g>
		<g id="Layer">
			<g id="Layer">
				<path id="Layer" class="shp0" d="M317 0.01L195.01 0.01C170.2 0.01 150.01 21.19 150.01 46.01L150.01 76C150.01 100.82 170.2 121 195.01 121L249.8 121L306.4 176.61C310.73 180.94 317.22 182.17 322.75 179.86C328.36 177.54 332 172.06 332 166L332 118.44C349.46 112.24 362 95.56 362 76L362 46.01C362 21.19 341.82 0.01 317 0.01Z" />
			</g>
		</g>
		<g id="Layer">
			<g id="Layer">
				<path id="Layer" fill-rule="evenodd" class="shp0" d="M217.29 511.08C202.87 514.79 185.35 506.99 180.9 489.27L167.84 451.99L41.72 451.99L29.56 500.62C27.55 508.71 19.36 513.55 11.38 511.53C3.34 509.53 -1.55 501.38 0.47 493.36L29.57 375.94C10.28 375.66 -3.78 357.51 0.91 338.71L30.91 203.72C34.17 190.82 46.26 181.31 59.66 181.18C71.38 181.18 81.85 187.62 86.85 197.6L97.41 226L180.01 226C196.58 226 210.01 239.43 210.01 256C210.01 272.57 196.58 286 180.01 286C164.3 286 150.97 286 135.01 286C126.73 286 120.01 292.71 120.01 301C120.01 309.28 126.73 316 135.01 316C145.87 316 154.15 316 165.01 316C178.81 316 190.77 325.33 194.11 338.7L239.11 474.71C243.12 490.81 233.32 507.08 217.29 511.08ZM157.34 421.99L141.57 375.99C125.73 375.99 88.33 375.99 59.73 375.99C59.73 377.2 59.87 378.4 59.56 379.63L49.22 421.99L157.34 421.99Z" />
			</g>
		</g>
		<g id="Layer">
			<g id="Layer">
				<path id="Layer" class="shp0" d="M421.99 76C397.18 76 376.99 96.19 376.99 121C376.99 145.82 397.18 166 421.99 166C446.8 166 466.99 145.82 466.99 121C466.99 96.19 446.8 76 421.99 76Z" />
			</g>
		</g>
		<g id="Layer">
			<g id="Layer">
				<path id="Layer" fill-rule="evenodd" class="shp0" d="M511.53 493.36C513.55 501.38 508.66 509.53 500.62 511.53C492.64 513.55 484.45 508.71 482.44 500.62L470.28 451.99L344.15 451.99L331.1 489.27C326.65 506.99 309.13 514.79 294.71 511.08C278.68 507.08 268.88 490.81 272.89 474.71L317.88 338.7C321.22 325.33 333.19 315.99 346.99 315.99C357.84 315.99 366.13 315.99 376.99 315.99C385.27 315.99 391.99 309.28 391.99 301C391.99 292.71 385.27 286 376.99 286C361.02 286 347.69 286 331.99 286C315.42 286 301.99 272.56 301.99 256C301.99 239.43 315.42 226 331.99 226L414.59 226L425.15 197.6C430.15 187.62 440.62 181.18 452.34 181.18C465.74 181.31 477.82 190.81 481.09 203.72L511.09 338.71C515.78 357.51 501.72 375.66 482.43 375.94L511.53 493.36ZM354.67 421.99L462.78 421.99L452.44 379.53C452.13 378.3 452.27 377.1 452.27 375.89C423.67 375.89 386.26 375.89 370.43 375.89L354.67 421.99Z" />
			</g>
		</g>
		<g id="Layer">
		</g>
		<g id="Layer">
		</g>
		<g id="Layer">
		</g>
		<g id="Layer">
		</g>
		<g id="Layer">
		</g>
		<g id="Layer">
		</g>
		<g id="Layer">
		</g>
		<g id="Layer">
		</g>
		<g id="Layer">
		</g>
		<g id="Layer">
		</g>
		<g id="Layer">
		</g>
		<g id="Layer">
		</g>
		<g id="Layer">
		</g>
		<g id="Layer">
		</g>
		<g id="Layer">
		</g>
	</g>
</svg>