<svg version="1.2" baseProfile="tiny-ps" xmlns="http://www.w3.org/2000/svg" viewBox="0 0 491 491" width="16" height="16">
	<title>new-svg</title>
	<style>
		tspan { white-space:pre }
		.shp0 { fill: #ffffff } 
	</style>
	<g id="Layer">
		<g id="Layer">
			<g id="Layer">
				<path id="Layer" fill-rule="evenodd" class="shp0" d="M490.67 245.33C490.67 261.08 475.86 272 462.81 281.6C455.23 287.17 445.83 294.12 444.59 298.73C443.24 303.77 448.04 314.86 451.93 323.75C458.56 339.05 465.43 354.86 457.82 368.02C450.11 381.38 432.81 383.32 416.09 385.19C406.57 386.26 394.71 387.58 391.15 391.15C387.61 394.71 386.28 406.55 385.22 416.09C383.34 432.81 381.4 450.09 368.02 457.81C356.5 464.49 339.33 458.65 323.78 451.91C315.24 448.19 306.41 444.35 300.65 444.35C294.12 445.8 287.19 455.23 281.6 462.81C271.98 475.86 261.06 490.67 245.33 490.67C229.59 490.67 218.69 475.86 209.07 462.81C203.48 455.25 196.54 445.82 191.94 444.59C184.19 444.44 175.42 448.21 166.89 451.93C151.38 458.67 134.19 464.53 122.65 457.81C109.29 450.09 107.35 432.81 105.47 416.11C104.41 406.59 103.08 394.73 99.52 391.17C95.98 387.6 84.12 386.28 74.58 385.22C57.88 383.34 40.58 381.38 32.88 368.04C25.24 354.88 32.11 339.05 38.76 323.78C42.65 314.88 47.45 303.81 46.1 298.75C44.86 294.14 35.44 287.19 27.88 281.62C14.8 272 0 261.08 0 245.33C0 229.59 14.8 218.67 27.86 209.07C35.43 203.5 44.84 196.54 46.08 191.94C47.44 186.88 42.62 175.79 38.74 166.89C32.11 151.59 25.24 135.79 32.85 122.62C40.55 109.29 57.86 107.33 74.58 105.45C84.1 104.41 95.96 103.06 99.52 99.52C103.06 95.96 104.38 84.12 105.45 74.58C107.33 57.86 109.27 40.58 122.65 32.85C134.17 26.18 151.38 32 166.89 38.74C175.42 42.45 184.26 46.29 190.02 46.29C196.54 44.86 203.48 35.43 209.07 27.86C218.69 14.8 229.61 0 245.33 0C261.08 0 271.98 14.8 281.58 27.86C287.17 35.41 294.1 44.84 298.71 46.08C306.3 45.99 315.22 42.45 323.75 38.74C339.22 32 356.42 26.11 368.02 32.85C381.37 40.57 383.32 57.85 385.19 74.56C386.26 84.07 387.58 95.93 391.15 99.5C394.69 103.06 406.55 104.38 416.08 105.45C432.79 107.33 450.09 109.29 457.79 122.62C465.43 135.79 458.56 151.61 451.9 166.89C448.02 175.79 443.22 186.86 444.56 191.91C445.8 196.52 455.23 203.48 462.78 209.04C475.86 218.67 490.67 229.59 490.67 245.33ZM192 202.67C192 196.78 187.22 192 181.33 192C175.44 192 170.67 196.78 170.67 202.67L170.67 256L125.87 196.27C123.11 192.6 118.29 191.08 113.96 192.56C109.61 194.01 106.67 198.08 106.67 202.67L106.67 288C106.67 293.89 111.44 298.67 117.33 298.67C123.22 298.67 128 293.89 128 288L128 234.67L172.8 294.4C174.85 297.13 178.05 298.67 181.33 298.67C182.46 298.67 183.59 298.5 184.7 298.11C189.06 296.66 192 292.59 192 288L192 202.67ZM266.67 234.67L234.67 234.67L234.67 213.33L266.67 213.33C272.56 213.33 277.33 208.55 277.33 202.67C277.33 196.78 272.56 192 266.67 192L224 192C218.11 192 213.33 196.78 213.33 202.67L213.33 288C213.33 293.89 218.11 298.67 224 298.67L266.67 298.67C272.55 298.67 277.33 293.89 277.33 288C277.33 282.11 272.55 277.33 266.67 277.33L234.67 277.33L234.67 256L266.67 256C272.56 256 277.33 251.22 277.33 245.33C277.33 239.45 272.55 234.67 266.67 234.67ZM397.23 192.32C391.47 190.89 385.71 194.35 384.3 200.09L371.86 249.88L362.11 220.63C359.21 211.93 344.79 211.93 341.87 220.63L332.12 249.88L319.68 200.09C318.25 194.35 312.36 190.87 306.75 192.32C301.04 193.75 297.58 199.53 298.99 205.25L320.32 290.58C321.47 295.17 325.53 298.47 330.26 298.65C335.62 298.86 339.31 295.85 340.8 291.37L352 257.73L363.18 291.35C364.65 295.72 368.72 298.65 373.31 298.65C373.44 298.65 373.59 298.65 373.74 298.65C378.47 298.47 382.53 295.19 383.68 290.58L405.01 205.25C406.44 199.55 402.99 193.75 397.23 192.32Z" />
			</g>
		</g>
		<g id="Layer">
		</g>
		<g id="Layer">
		</g>
		<g id="Layer">
		</g>
		<g id="Layer">
		</g>
		<g id="Layer">
		</g>
		<g id="Layer">
		</g>
		<g id="Layer">
		</g>
		<g id="Layer">
		</g>
		<g id="Layer">
		</g>
		<g id="Layer">
		</g>
		<g id="Layer">
		</g>
		<g id="Layer">
		</g>
		<g id="Layer">
		</g>
		<g id="Layer">
		</g>
		<g id="Layer">
		</g>
	</g>
</svg>